<svg width="16" height="16" viewBox="0 0 16 16" fill="none" xmlns="http://www.w3.org/2000/svg">
<g clip-path="url(#clip0_11_10)">
<path d="M7.9 6.13333C7.53333 6.13333 7.1 6.36667 6.73333 6.73333C6.46667 7 6.23333 7.33333 6.16667 7.66667C6.1 7.9 6.13333 8.1 6.23333 8.23333C6.3 8.3 6.4 8.33333 6.53333 8.33333C6.9 8.33333 7.33333 8.1 7.7 7.73333C7.96667 7.46667 8.2 7.1 8.26667 6.8C8.33333 6.56667 8.3 6.36667 8.2 6.23333C8.13333 6.16667 8.03333 6.13333 7.9 6.13333Z" fill="black"/>
<path d="M9.83333 2.33333C8.3 2.33333 6.4 3.3 4.86667 4.83333C3.7 6 2.86667 7.36667 2.53333 8.63333C2.2 9.86667 2.36667 10.8667 2.96667 11.4667C3.36667 11.8667 3.93333 12.0667 4.63333 12.0667C6.16667 12.0667 8.06667 11.1 9.6 9.56667C11.9333 7.23333 12.8 4.2 11.5 2.93333C11.1 2.56667 10.5333 2.33333 9.83333 2.33333ZM9.2 9.2C8.1 10.3 6.76667 10.9333 5.63333 10.9333C5 10.9333 4.46667 10.7333 4.06667 10.3333C3.5 9.76667 3.33333 8.93333 3.6 7.93333C3.83333 7 4.4 6.03333 5.23333 5.2C6.33333 4.1 7.66667 3.46667 8.8 3.46667C9.43333 3.46667 9.96667 3.66667 10.3667 4.06667C11.5 5.2 10.9667 7.46667 9.2 9.2Z" fill="black"/>
<path d="M8.8 4.2C7.83333 4.2 6.66667 4.8 5.7 5.73333C4.96667 6.46667 4.46667 7.3 4.26667 8.13333C4.06667 8.9 4.2 9.5 4.56667 9.9C4.86667 10.2 5.33333 10.2667 5.63333 10.2667C6.6 10.2667 7.76667 9.66667 8.73333 8.73333C10.1667 7.3 10.7 5.4 9.9 4.56667C9.56667 4.26667 9.13333 4.2 8.8 4.2ZM8.96667 6.96667C8.86667 7.4 8.6 7.83333 8.23333 8.2C7.73333 8.7 7.1 9 6.56667 9C6.23333 9 5.96667 8.9 5.76667 8.7C5.46667 8.43333 5.4 7.96667 5.5 7.5C5.6 7.06667 5.86667 6.63333 6.23333 6.26667C6.73333 5.76667 7.36667 5.46667 7.9 5.46667C8.23333 5.46667 8.5 5.56667 8.7 5.76667C9 6.03333 9.06667 6.46667 8.96667 6.96667Z" fill="black"/>
<path d="M13.2667 1.16667C11.2667 -0.833333 6.93333 0.233333 3.56667 3.56667C0.2 6.9 -0.866667 11.2333 1.16667 13.2667C3.16667 15.2667 7.5 14.2 10.8667 10.8667C14.2 7.53333 15.2667 3.2 13.2667 1.16667ZM10.1 10.1C8.4 11.8 6.36667 12.8 4.63333 12.8C3.73333 12.8 3 12.5333 2.46667 12C1.66667 11.2 1.46667 9.96667 1.86667 8.5C2.23333 7.1 3.13333 5.63333 4.4 4.36667C6.06667 2.66667 8.1 1.66667 9.83333 1.66667C10.7333 1.66667 11.4667 1.93333 12 2.46667C13.6 4.06667 12.7667 7.4 10.1 10.1Z" fill="black"/>
<path d="M15.2 12.4L14.5667 11.7667C16.1 9.26667 16.2333 6.16667 14.9667 3.6C15.1 5.96667 13.8 8.9 11.3333 11.3667C9.06667 13.6333 6.26667 15 3.9 15H3.56667C6.2 16.3 9.36667 16.1333 11.8667 14.5667C12.1 14.7 12.3 14.8 12.5333 14.9C12.5667 14.9 12.6 14.9333 12.6333 14.9333C12.7 14.9333 12.7333 14.8333 12.7333 14.7667C12.7 14.7 12.6667 14.6667 12.6 14.6C12.7333 14.6667 12.9 14.6333 12.9667 14.5333C13.0333 14.4333 13 14.2333 12.8667 14.2C13 14.1 13.1333 14.1 13.3 14.1C13.4333 14.1 13.6 14.1 13.7 14C13.8 13.9 13.8 13.6667 13.6667 13.6333C13.8667 13.6 14.0667 13.5667 14.3 13.5333C14.3333 13.5333 14.3667 13.5 14.4 13.4667V13.4C14.3667 13.3 14.3 13.2333 14.2333 13.1333C14.3667 13.1 14.5 13.1 14.6333 13.0667C14.6667 13.0667 14.6667 13.0667 14.7 13.0333C14.7667 12.9667 14.5667 12.8333 14.6333 12.7333C14.8 12.6333 15.0333 12.5667 15.2 12.4Z" fill="black"/>
</g>
<defs>
<clipPath id="clip0_11_10">
<rect width="16" height="16" fill="white"/>
</clipPath>
</defs>
</svg>
